<mxfile host="app.diagrams.net" agent="Mozilla/5.0 (Windows NT 10.0; Win64; x64) AppleWebKit/537.36 (KHTML, like Gecko) Chrome/131.0.0.0 Safari/537.36" version="26.0.5">
  <diagram name="Page-1" id="kkEem_J1pazH2KmfUyrv">
    <mxGraphModel dx="1114" dy="638" grid="1" gridSize="10" guides="1" tooltips="1" connect="1" arrows="1" fold="1" page="1" pageScale="1" pageWidth="1100" pageHeight="850" math="0" shadow="0">
      <root>
        <mxCell id="0" />
        <mxCell id="1" parent="0" />
        <mxCell id="Aoyr5WnOwGJJKtgCtAbm-1" value="Живущ 1" style="rounded=0;whiteSpace=wrap;html=1;direction=south;" vertex="1" parent="1">
          <mxGeometry x="440" y="160" width="80" height="160" as="geometry" />
        </mxCell>
        <mxCell id="Aoyr5WnOwGJJKtgCtAbm-2" value="Живущ 2" style="rounded=0;whiteSpace=wrap;html=1;direction=south;" vertex="1" parent="1">
          <mxGeometry x="560" y="160" width="80" height="160" as="geometry" />
        </mxCell>
        <mxCell id="Aoyr5WnOwGJJKtgCtAbm-3" value="Живущ 3" style="rounded=0;whiteSpace=wrap;html=1;direction=south;" vertex="1" parent="1">
          <mxGeometry x="680" y="160" width="80" height="160" as="geometry" />
        </mxCell>
        <mxCell id="Aoyr5WnOwGJJKtgCtAbm-4" value="" style="ellipse;whiteSpace=wrap;html=1;aspect=fixed;strokeColor=#1A1A1A;fillColor=light-dark(#1A1A1A,#EDEDED);fillStyle=solid;gradientColor=none;gradientDirection=radial;" vertex="1" parent="1">
          <mxGeometry x="800" y="230" width="20" height="20" as="geometry" />
        </mxCell>
        <mxCell id="Aoyr5WnOwGJJKtgCtAbm-5" value="" style="ellipse;whiteSpace=wrap;html=1;aspect=fixed;strokeColor=#1A1A1A;fillColor=light-dark(#1A1A1A,#EDEDED);fillStyle=solid;gradientColor=none;gradientDirection=radial;" vertex="1" parent="1">
          <mxGeometry x="850" y="230" width="20" height="20" as="geometry" />
        </mxCell>
        <mxCell id="Aoyr5WnOwGJJKtgCtAbm-6" value="" style="ellipse;whiteSpace=wrap;html=1;aspect=fixed;strokeColor=#1A1A1A;fillColor=light-dark(#1A1A1A,#EDEDED);fillStyle=solid;gradientColor=none;gradientDirection=radial;" vertex="1" parent="1">
          <mxGeometry x="900" y="230" width="20" height="20" as="geometry" />
        </mxCell>
        <mxCell id="Aoyr5WnOwGJJKtgCtAbm-8" value="Живущ N" style="rounded=0;whiteSpace=wrap;html=1;direction=south;" vertex="1" parent="1">
          <mxGeometry x="960" y="160" width="80" height="160" as="geometry" />
        </mxCell>
        <mxCell id="Aoyr5WnOwGJJKtgCtAbm-13" style="edgeStyle=orthogonalEdgeStyle;rounded=0;orthogonalLoop=1;jettySize=auto;html=1;exitX=1;exitY=0.25;exitDx=0;exitDy=0;entryX=1;entryY=0.5;entryDx=0;entryDy=0;fillColor=#e3c800;strokeColor=#B09500;" edge="1" parent="1" source="Aoyr5WnOwGJJKtgCtAbm-11" target="Aoyr5WnOwGJJKtgCtAbm-2">
          <mxGeometry relative="1" as="geometry" />
        </mxCell>
        <mxCell id="Aoyr5WnOwGJJKtgCtAbm-14" style="edgeStyle=orthogonalEdgeStyle;rounded=0;orthogonalLoop=1;jettySize=auto;html=1;exitX=1;exitY=0.5;exitDx=0;exitDy=0;entryX=1;entryY=0.5;entryDx=0;entryDy=0;fillColor=#e3c800;strokeColor=#B09500;" edge="1" parent="1" source="Aoyr5WnOwGJJKtgCtAbm-11" target="Aoyr5WnOwGJJKtgCtAbm-3">
          <mxGeometry relative="1" as="geometry" />
        </mxCell>
        <mxCell id="Aoyr5WnOwGJJKtgCtAbm-15" style="edgeStyle=orthogonalEdgeStyle;rounded=0;orthogonalLoop=1;jettySize=auto;html=1;exitX=1;exitY=0.75;exitDx=0;exitDy=0;entryX=1;entryY=0.5;entryDx=0;entryDy=0;fillColor=#e3c800;strokeColor=#B09500;" edge="1" parent="1" source="Aoyr5WnOwGJJKtgCtAbm-11" target="Aoyr5WnOwGJJKtgCtAbm-8">
          <mxGeometry relative="1" as="geometry" />
        </mxCell>
        <mxCell id="Aoyr5WnOwGJJKtgCtAbm-19" style="edgeStyle=orthogonalEdgeStyle;rounded=0;orthogonalLoop=1;jettySize=auto;html=1;exitX=1;exitY=1;exitDx=0;exitDy=0;entryX=1;entryY=0.25;entryDx=0;entryDy=0;" edge="1" parent="1" source="Aoyr5WnOwGJJKtgCtAbm-11" target="Aoyr5WnOwGJJKtgCtAbm-8">
          <mxGeometry relative="1" as="geometry">
            <Array as="points">
              <mxPoint x="1020" y="640" />
            </Array>
          </mxGeometry>
        </mxCell>
        <mxCell id="Aoyr5WnOwGJJKtgCtAbm-20" style="edgeStyle=orthogonalEdgeStyle;rounded=0;orthogonalLoop=1;jettySize=auto;html=1;exitX=1;exitY=1;exitDx=0;exitDy=0;entryX=1;entryY=0.25;entryDx=0;entryDy=0;" edge="1" parent="1" source="Aoyr5WnOwGJJKtgCtAbm-11" target="Aoyr5WnOwGJJKtgCtAbm-3">
          <mxGeometry relative="1" as="geometry">
            <Array as="points">
              <mxPoint x="740" y="640" />
            </Array>
          </mxGeometry>
        </mxCell>
        <mxCell id="Aoyr5WnOwGJJKtgCtAbm-21" style="edgeStyle=orthogonalEdgeStyle;rounded=0;orthogonalLoop=1;jettySize=auto;html=1;exitX=1;exitY=1;exitDx=0;exitDy=0;entryX=1;entryY=0.25;entryDx=0;entryDy=0;" edge="1" parent="1" source="Aoyr5WnOwGJJKtgCtAbm-11" target="Aoyr5WnOwGJJKtgCtAbm-1">
          <mxGeometry relative="1" as="geometry">
            <Array as="points">
              <mxPoint x="500" y="640" />
            </Array>
          </mxGeometry>
        </mxCell>
        <mxCell id="Aoyr5WnOwGJJKtgCtAbm-22" style="edgeStyle=orthogonalEdgeStyle;rounded=0;orthogonalLoop=1;jettySize=auto;html=1;exitX=1;exitY=1;exitDx=0;exitDy=0;endArrow=oval;endFill=1;" edge="1" parent="1" source="Aoyr5WnOwGJJKtgCtAbm-11">
          <mxGeometry relative="1" as="geometry">
            <mxPoint x="500" y="640" as="targetPoint" />
            <Array as="points">
              <mxPoint x="370" y="640" />
              <mxPoint x="370" y="641" />
            </Array>
          </mxGeometry>
        </mxCell>
        <mxCell id="Aoyr5WnOwGJJKtgCtAbm-23" style="edgeStyle=orthogonalEdgeStyle;rounded=0;orthogonalLoop=1;jettySize=auto;html=1;exitX=1;exitY=1;exitDx=0;exitDy=0;endArrow=oval;endFill=1;" edge="1" parent="1" source="Aoyr5WnOwGJJKtgCtAbm-11">
          <mxGeometry relative="1" as="geometry">
            <mxPoint x="620" y="640" as="targetPoint" />
            <Array as="points">
              <mxPoint x="430" y="640" />
              <mxPoint x="430" y="641" />
            </Array>
          </mxGeometry>
        </mxCell>
        <mxCell id="Aoyr5WnOwGJJKtgCtAbm-24" style="edgeStyle=orthogonalEdgeStyle;rounded=0;orthogonalLoop=1;jettySize=auto;html=1;exitX=1;exitY=1;exitDx=0;exitDy=0;endArrow=oval;endFill=1;" edge="1" parent="1" source="Aoyr5WnOwGJJKtgCtAbm-11">
          <mxGeometry relative="1" as="geometry">
            <mxPoint x="740" y="640" as="targetPoint" />
            <Array as="points">
              <mxPoint x="490" y="640" />
              <mxPoint x="490" y="641" />
            </Array>
          </mxGeometry>
        </mxCell>
        <mxCell id="Aoyr5WnOwGJJKtgCtAbm-46" style="edgeStyle=orthogonalEdgeStyle;rounded=0;orthogonalLoop=1;jettySize=auto;html=1;exitX=1;exitY=1;exitDx=0;exitDy=0;entryX=1;entryY=0.25;entryDx=0;entryDy=0;" edge="1" parent="1" source="Aoyr5WnOwGJJKtgCtAbm-11" target="Aoyr5WnOwGJJKtgCtAbm-2">
          <mxGeometry relative="1" as="geometry">
            <Array as="points">
              <mxPoint x="620" y="640" />
            </Array>
          </mxGeometry>
        </mxCell>
        <mxCell id="Aoyr5WnOwGJJKtgCtAbm-11" value="Домофон" style="whiteSpace=wrap;html=1;aspect=fixed;" vertex="1" parent="1">
          <mxGeometry x="80" y="480" width="160" height="160" as="geometry" />
        </mxCell>
        <mxCell id="Aoyr5WnOwGJJKtgCtAbm-12" value="" style="endArrow=block;html=1;rounded=0;exitX=1;exitY=0;exitDx=0;exitDy=0;entryX=1;entryY=0.5;entryDx=0;entryDy=0;endFill=1;fillColor=#e3c800;strokeColor=#B09500;" edge="1" parent="1" source="Aoyr5WnOwGJJKtgCtAbm-11" target="Aoyr5WnOwGJJKtgCtAbm-1">
          <mxGeometry width="50" height="50" relative="1" as="geometry">
            <mxPoint x="490" y="410" as="sourcePoint" />
            <mxPoint x="320" y="510" as="targetPoint" />
            <Array as="points">
              <mxPoint x="280" y="480" />
              <mxPoint x="480" y="480" />
            </Array>
          </mxGeometry>
        </mxCell>
        <mxCell id="Aoyr5WnOwGJJKtgCtAbm-25" value="Живущ 1" style="rounded=0;whiteSpace=wrap;html=1;direction=south;" vertex="1" parent="1">
          <mxGeometry x="1560" y="160" width="80" height="160" as="geometry" />
        </mxCell>
        <mxCell id="Aoyr5WnOwGJJKtgCtAbm-26" value="Живущ 2" style="rounded=0;whiteSpace=wrap;html=1;direction=south;" vertex="1" parent="1">
          <mxGeometry x="1680" y="160" width="80" height="160" as="geometry" />
        </mxCell>
        <mxCell id="Aoyr5WnOwGJJKtgCtAbm-27" value="Живущ 3" style="rounded=0;whiteSpace=wrap;html=1;direction=south;" vertex="1" parent="1">
          <mxGeometry x="1800" y="160" width="80" height="160" as="geometry" />
        </mxCell>
        <mxCell id="Aoyr5WnOwGJJKtgCtAbm-28" value="" style="ellipse;whiteSpace=wrap;html=1;aspect=fixed;strokeColor=#1A1A1A;fillColor=light-dark(#1A1A1A,#EDEDED);fillStyle=solid;gradientColor=none;gradientDirection=radial;" vertex="1" parent="1">
          <mxGeometry x="1920" y="230" width="20" height="20" as="geometry" />
        </mxCell>
        <mxCell id="Aoyr5WnOwGJJKtgCtAbm-29" value="" style="ellipse;whiteSpace=wrap;html=1;aspect=fixed;strokeColor=#1A1A1A;fillColor=light-dark(#1A1A1A,#EDEDED);fillStyle=solid;gradientColor=none;gradientDirection=radial;" vertex="1" parent="1">
          <mxGeometry x="1970" y="230" width="20" height="20" as="geometry" />
        </mxCell>
        <mxCell id="Aoyr5WnOwGJJKtgCtAbm-30" value="" style="ellipse;whiteSpace=wrap;html=1;aspect=fixed;strokeColor=#1A1A1A;fillColor=light-dark(#1A1A1A,#EDEDED);fillStyle=solid;gradientColor=none;gradientDirection=radial;" vertex="1" parent="1">
          <mxGeometry x="2020" y="230" width="20" height="20" as="geometry" />
        </mxCell>
        <mxCell id="Aoyr5WnOwGJJKtgCtAbm-31" value="Живущ N" style="rounded=0;whiteSpace=wrap;html=1;direction=south;" vertex="1" parent="1">
          <mxGeometry x="2080" y="160" width="80" height="160" as="geometry" />
        </mxCell>
        <mxCell id="Aoyr5WnOwGJJKtgCtAbm-32" style="edgeStyle=orthogonalEdgeStyle;rounded=0;orthogonalLoop=1;jettySize=auto;html=1;exitX=1;exitY=0.25;exitDx=0;exitDy=0;entryX=1;entryY=0.5;entryDx=0;entryDy=0;fillColor=#e3c800;strokeColor=#B09500;" edge="1" parent="1" source="Aoyr5WnOwGJJKtgCtAbm-41" target="Aoyr5WnOwGJJKtgCtAbm-26">
          <mxGeometry relative="1" as="geometry" />
        </mxCell>
        <mxCell id="Aoyr5WnOwGJJKtgCtAbm-33" style="edgeStyle=orthogonalEdgeStyle;rounded=0;orthogonalLoop=1;jettySize=auto;html=1;exitX=1;exitY=0.25;exitDx=0;exitDy=0;entryX=1;entryY=0.5;entryDx=0;entryDy=0;fillColor=#e3c800;strokeColor=#B09500;" edge="1" parent="1" source="Aoyr5WnOwGJJKtgCtAbm-41" target="Aoyr5WnOwGJJKtgCtAbm-27">
          <mxGeometry relative="1" as="geometry" />
        </mxCell>
        <mxCell id="Aoyr5WnOwGJJKtgCtAbm-34" style="edgeStyle=orthogonalEdgeStyle;rounded=0;orthogonalLoop=1;jettySize=auto;html=1;exitX=1;exitY=0.25;exitDx=0;exitDy=0;entryX=1;entryY=0.5;entryDx=0;entryDy=0;fillColor=#e3c800;strokeColor=#B09500;" edge="1" parent="1" source="Aoyr5WnOwGJJKtgCtAbm-41" target="Aoyr5WnOwGJJKtgCtAbm-31">
          <mxGeometry relative="1" as="geometry" />
        </mxCell>
        <mxCell id="Aoyr5WnOwGJJKtgCtAbm-35" style="edgeStyle=orthogonalEdgeStyle;rounded=0;orthogonalLoop=1;jettySize=auto;html=1;exitX=1;exitY=1;exitDx=0;exitDy=0;entryX=1;entryY=0.25;entryDx=0;entryDy=0;" edge="1" parent="1" source="Aoyr5WnOwGJJKtgCtAbm-41" target="Aoyr5WnOwGJJKtgCtAbm-31">
          <mxGeometry relative="1" as="geometry">
            <Array as="points">
              <mxPoint x="1360" y="600" />
              <mxPoint x="2140" y="600" />
            </Array>
          </mxGeometry>
        </mxCell>
        <mxCell id="Aoyr5WnOwGJJKtgCtAbm-36" style="edgeStyle=orthogonalEdgeStyle;rounded=0;orthogonalLoop=1;jettySize=auto;html=1;exitX=1;exitY=0.25;exitDx=0;exitDy=0;entryX=1;entryY=0.25;entryDx=0;entryDy=0;" edge="1" parent="1" source="Aoyr5WnOwGJJKtgCtAbm-26" target="Aoyr5WnOwGJJKtgCtAbm-27">
          <mxGeometry relative="1" as="geometry">
            <Array as="points">
              <mxPoint x="1740" y="600" />
              <mxPoint x="1860" y="600" />
            </Array>
          </mxGeometry>
        </mxCell>
        <mxCell id="Aoyr5WnOwGJJKtgCtAbm-37" style="edgeStyle=orthogonalEdgeStyle;rounded=0;orthogonalLoop=1;jettySize=auto;html=1;exitX=1;exitY=1;exitDx=0;exitDy=0;entryX=1;entryY=0.25;entryDx=0;entryDy=0;" edge="1" parent="1" source="Aoyr5WnOwGJJKtgCtAbm-41" target="Aoyr5WnOwGJJKtgCtAbm-25">
          <mxGeometry relative="1" as="geometry">
            <Array as="points">
              <mxPoint x="1360" y="600" />
              <mxPoint x="1620" y="600" />
            </Array>
          </mxGeometry>
        </mxCell>
        <mxCell id="Aoyr5WnOwGJJKtgCtAbm-38" style="edgeStyle=orthogonalEdgeStyle;rounded=0;orthogonalLoop=1;jettySize=auto;html=1;exitX=1;exitY=1;exitDx=0;exitDy=0;endArrow=oval;endFill=1;" edge="1" parent="1" source="Aoyr5WnOwGJJKtgCtAbm-41">
          <mxGeometry relative="1" as="geometry">
            <mxPoint x="1620" y="600" as="targetPoint" />
            <Array as="points">
              <mxPoint x="1360" y="600" />
            </Array>
          </mxGeometry>
        </mxCell>
        <mxCell id="Aoyr5WnOwGJJKtgCtAbm-39" style="edgeStyle=orthogonalEdgeStyle;rounded=0;orthogonalLoop=1;jettySize=auto;html=1;exitX=1;exitY=1;exitDx=0;exitDy=0;endArrow=oval;endFill=1;" edge="1" parent="1" source="Aoyr5WnOwGJJKtgCtAbm-41">
          <mxGeometry relative="1" as="geometry">
            <mxPoint x="1740" y="600" as="targetPoint" />
            <Array as="points">
              <mxPoint x="1360" y="600" />
            </Array>
          </mxGeometry>
        </mxCell>
        <mxCell id="Aoyr5WnOwGJJKtgCtAbm-40" style="edgeStyle=orthogonalEdgeStyle;rounded=0;orthogonalLoop=1;jettySize=auto;html=1;exitX=1;exitY=0.75;exitDx=0;exitDy=0;endArrow=oval;endFill=1;" edge="1" parent="1" source="Aoyr5WnOwGJJKtgCtAbm-41">
          <mxGeometry relative="1" as="geometry">
            <mxPoint x="1860" y="600" as="targetPoint" />
            <Array as="points">
              <mxPoint x="1860" y="600" />
            </Array>
          </mxGeometry>
        </mxCell>
        <mxCell id="Aoyr5WnOwGJJKtgCtAbm-43" style="edgeStyle=orthogonalEdgeStyle;rounded=0;orthogonalLoop=1;jettySize=auto;html=1;exitX=1;exitY=0.25;exitDx=0;exitDy=0;endArrow=oval;endFill=1;fillColor=#e3c800;strokeColor=#B09500;" edge="1" parent="1" source="Aoyr5WnOwGJJKtgCtAbm-41">
          <mxGeometry relative="1" as="geometry">
            <mxPoint x="1600" y="520" as="targetPoint" />
          </mxGeometry>
        </mxCell>
        <mxCell id="Aoyr5WnOwGJJKtgCtAbm-44" style="edgeStyle=orthogonalEdgeStyle;rounded=0;orthogonalLoop=1;jettySize=auto;html=1;exitX=1;exitY=0.25;exitDx=0;exitDy=0;endArrow=oval;endFill=1;fillColor=#e3c800;strokeColor=#B09500;" edge="1" parent="1" source="Aoyr5WnOwGJJKtgCtAbm-41">
          <mxGeometry relative="1" as="geometry">
            <mxPoint x="1720" y="520" as="targetPoint" />
          </mxGeometry>
        </mxCell>
        <mxCell id="Aoyr5WnOwGJJKtgCtAbm-45" style="edgeStyle=orthogonalEdgeStyle;rounded=0;orthogonalLoop=1;jettySize=auto;html=1;exitX=1;exitY=0.25;exitDx=0;exitDy=0;endArrow=oval;endFill=1;fillColor=#e3c800;strokeColor=#B09500;" edge="1" parent="1" source="Aoyr5WnOwGJJKtgCtAbm-41">
          <mxGeometry relative="1" as="geometry">
            <mxPoint x="1840" y="520" as="targetPoint" />
          </mxGeometry>
        </mxCell>
        <mxCell id="Aoyr5WnOwGJJKtgCtAbm-41" value="Домофон" style="whiteSpace=wrap;html=1;aspect=fixed;" vertex="1" parent="1">
          <mxGeometry x="1200" y="480" width="160" height="160" as="geometry" />
        </mxCell>
        <mxCell id="Aoyr5WnOwGJJKtgCtAbm-42" value="" style="endArrow=block;html=1;rounded=0;exitX=1;exitY=0.25;exitDx=0;exitDy=0;entryX=1;entryY=0.5;entryDx=0;entryDy=0;endFill=1;fillColor=#e3c800;strokeColor=#B09500;" edge="1" parent="1" source="Aoyr5WnOwGJJKtgCtAbm-41" target="Aoyr5WnOwGJJKtgCtAbm-25">
          <mxGeometry width="50" height="50" relative="1" as="geometry">
            <mxPoint x="1610" y="410" as="sourcePoint" />
            <mxPoint x="1440" y="510" as="targetPoint" />
            <Array as="points">
              <mxPoint x="1600" y="520" />
            </Array>
          </mxGeometry>
        </mxCell>
      </root>
    </mxGraphModel>
  </diagram>
</mxfile>
